<?xml version="1.0" encoding="utf-8"?>
<!-- Generator: Adobe Illustrator 18.0.0, SVG Export Plug-In . SVG Version: 6.00 Build 0)  -->
<!DOCTYPE svg PUBLIC "-//W3C//DTD SVG 1.1//EN" "http://www.w3.org/Graphics/SVG/1.1/DTD/svg11.dtd">
<svg version="1.1" id="图层_1" xmlns:ev="http://www.w3.org/2001/xml-events"
	 xmlns="http://www.w3.org/2000/svg" xmlns:xlink="http://www.w3.org/1999/xlink" x="0px" y="0px" viewBox="0 0 127 84.7"
	 enable-background="new 0 0 127 84.7" xml:space="preserve">
<path fill="#FFFFFF" d="M99.7,84.7c-0.4,0-0.9,0-1.3,0v0H28.7v0c-0.4,0-0.9,0-1.3,0C12.2,84.7,0,72.3,0,57.1
	c0-13.9,10.1-25.4,23.4-27.3c-0.1-1.1-0.2-2.2-0.2-3.3C23.2,11.9,34.9,0,49.4,0C59,0,67.3,5.1,71.9,12.8c3.1-1.5,6.6-2.4,10.4-2.4
	c11.7,0,21.4,8.5,23.3,19.7c12.2,2.7,21.4,13.8,21.4,26.9C127,72.3,114.8,84.7,99.7,84.7z"/>
</svg>
