<?xml version="1.0" encoding="UTF-8" standalone="no"?>
<svg width="96px" height="96px" viewBox="0 0 96 96" version="1.1" xmlns="http://www.w3.org/2000/svg" xmlns:xlink="http://www.w3.org/1999/xlink">
    <!-- Generator: Sketch 3.8.3 (29802) - http://www.bohemiancoding.com/sketch -->
    <title>Group</title>
    <desc>Created with Sketch.</desc>
    <defs>
        <radialGradient cx="50%" cy="11.2589518%" fx="50%" fy="11.2589518%" r="83.0159505%" id="radialGradient-1">
            <stop stop-color="#FDFDFD" offset="0%"></stop>
            <stop stop-color="#F9F9F9" offset="38.7511028%"></stop>
            <stop stop-color="#DEDEDE" offset="100%"></stop>
        </radialGradient>
        <linearGradient x1="89.9921981%" y1="90.0505442%" x2="0%" y2="-18.7996076%" id="linearGradient-2">
            <stop stop-color="#70BFB6" offset="0%"></stop>
            <stop stop-color="#DCF8E1" offset="100%"></stop>
        </linearGradient>
    </defs>
    <g id="icon" stroke="none" stroke-width="1" fill="none" fill-rule="evenodd">
        <g id="Group">
            <ellipse id="Oval-4" fill="url(#radialGradient-1)" cx="48" cy="48" rx="48" ry="48"></ellipse>
            <path d="M63.0091294,39.1017412 L63.1777882,39.2704 C57.1904,46.6913882 36.5296941,74.8574118 36.5296941,83.2903529 C36.5296941,85.5672471 37.8789647,87.4224941 40.2401882,87.4224941 C43.1073882,87.4224941 46.1432471,83.7963294 47.9141647,81.7724235 C52.0463059,76.8813176 62.3344941,68.4483765 67.7315765,64.4005647 C68.9121882,63.7259294 72.8756706,60.5214118 72.8756706,59.1721412 C72.8756706,57.8228706 70.4301176,57.4012235 64.7800471,60.2684235 C54.9135059,65.3281882 54.6605176,66.4244706 53.4799059,66.3401412 C51.2030118,66.1714824 56.5157647,58.9191529 63.4307765,49.0526118 C75.5742118,31.7650824 79.2847059,28.2232471 79.2847059,25.8620235 C79.2847059,24.0911059 77.4294588,20.8022588 75.3212235,20.8022588 C73.9719529,20.8022588 71.5264,23.3321412 70.5987765,24.1754353 C44.1193412,48.2936471 52.8896,39.9450353 40.9148235,49.8959059 C38.1319529,52.2571294 36.3610353,51.1608471 36.4453647,50.0645647 C36.6140235,47.5346824 39.5655529,44.9204706 52.8896,27.8859294 C55.3351529,24.7657412 61.7441882,17.0917647 61.7441882,13.2969412 C61.7441882,9.92376471 58.7926588,8.65882353 55.8411294,8.65882353 C47.8298353,8.65882353 30.6266353,17.1760941 23.6272941,21.4768941 C20.8444235,23.2478118 19.3264941,24.4284235 18.3988706,27.6329412 L17.1339294,32.1867294 C16.6279529,33.8733176 16.4592941,34.9696 16.6279529,35.5599059 C16.7966118,36.1502118 17.3025882,36.3188706 18.0615529,36.3188706 C18.7361882,36.3188706 20.1697882,35.7285647 20.7600941,35.3069176 C28.4340706,31.2591059 35.5177412,27.0426353 48.4201412,20.6336 C48.9261176,20.7179294 49.6007529,20.9709176 49.5164235,21.5612235 C49.5164235,23.5851294 45.5529412,28.1389176 38.3849412,36.7405176 C22.784,55.3773176 23.7116235,57.9915294 23.3743059,59.8467765 C22.8683294,62.7139765 26.4101647,65.4968471 29.1930353,65.4968471 C32.6505412,65.4968471 38.1319529,60.6057412 40.6618353,58.4131765 L63.0091294,39.1017412 Z" id="Y" fill="url(#linearGradient-2)"></path>
        </g>
    </g>
</svg>