<?xml version="1.0" encoding="UTF-8" standalone="no"?>
<svg width="1682px" height="634px" viewBox="0 0 1682 634" version="1.1" xmlns="http://www.w3.org/2000/svg" xmlns:xlink="http://www.w3.org/1999/xlink">
    <!-- Generator: Sketch 39 (31667) - http://www.bohemiancoding.com/sketch -->
    <title>font</title>
    <desc>Created with Sketch.</desc>
    <defs></defs>
    <g id="Page-1" stroke="none" stroke-width="1" fill="none" fill-rule="evenodd">
        <g id="Artboard-10" transform="translate(-2846.000000, -4007.000000)">
            <g id="font" transform="translate(2846.000000, 3985.000000)">
                <path d="M439.789062,490.558594 L523.054688,641.976562 L422.679688,641.976562 L389.601562,580.953125 L355.953125,641.976562 L253.011719,641.976562 L341.125,490.558594 L261.566406,342.277344 L358.804688,342.277344 L392.167969,403.300781 L427.527344,342.277344 L521.628906,342.277344 L439.789062,490.558594 Z M292.363281,225.078125 L383.042969,225.078125 L339.414062,325.167969 L245.882812,325.167969 L292.363281,225.078125 Z M504.804688,211.960937 L257.859375,211.960937 L257.859375,146.089844 L330.859375,146.089844 C333.710952,141.337216 338.368457,134.731162 344.832031,126.271484 C351.295605,117.811807 362.60669,113.391929 378.765625,113.011719 C394.92456,112.631509 407.803988,114.43748 417.404297,118.429687 C427.004605,122.421895 434.180966,128.410116 438.933594,136.394531 L444.921875,146.089844 L530.753906,146.089844 L504.804688,211.960937 Z M489.691406,225.078125 L525.90625,322.886719 L438.078125,322.886719 L401.578125,225.078125 L489.691406,225.078125 Z M240.464844,168.617187 L209.953125,237.339844 L163.757812,237.339844 L163.757812,624.296875 L88.1914062,655.09375 L88.1914062,237.339844 L11.1992188,237.339844 L11.1992188,168.617187 L88.1914062,168.617187 L88.1914062,120.425781 L163.757812,120.425781 L163.757812,168.617187 L240.464844,168.617187 Z M0.93359375,600.34375 L18.6132812,270.703125 L82.4882812,270.703125 L70.2265625,600.34375 L0.93359375,600.34375 Z M168.320312,270.703125 L230.484375,270.703125 L252.441406,597.207031 L185.714844,597.207031 L168.320312,270.703125 Z M838.152344,375.070312 L915.429688,375.070312 L872.085938,598.632812 L795.09375,598.917969 L838.152344,375.070312 Z M813.34375,331.15625 L813.34375,263.574219 L1107.91016,263.574219 L1077.39844,331.15625 L999.550781,331.15625 L999.550781,579.527344 L940.808594,644.828125 L886.34375,644.828125 L886.34375,579.527344 L923.984375,579.527344 L923.699219,331.15625 L813.34375,331.15625 Z M1008.67578,376.496094 L1083.38672,376.496094 L1108.76562,596.351562 L1032.91406,596.921875 L1008.67578,376.496094 Z M587.214844,119.570312 L797.375,119.570312 L797.945312,303.496094 L764.296875,343.988281 L797.945312,376.496094 L797.945312,527.628906 L729.507812,594.640625 L663.351562,594.925781 L663.351562,619.449219 L587.214844,654.808594 L587.214844,119.570312 Z M663.351562,527.914062 L721.808594,527.628906 L721.808594,376.496094 L663.351562,376.78125 L663.351562,527.914062 Z M663.351562,186.011719 L663.351562,309.199219 L721.808594,309.199219 L721.808594,186.011719 L663.351562,186.011719 Z M1076.25781,185.726562 L814.769531,185.726562 L814.769531,119.570312 L1107.05469,119.570312 L1076.25781,185.726562 Z M1675.37109,166.335937 L1626.32422,227.074219 L1675.37109,227.074219 L1675.37109,486.28125 L1589.53906,553.578125 L1551.89844,553.578125 L1551.89844,494.265625 L1589.53906,494.265625 L1589.53906,285.53125 L1531.08203,285.53125 L1531.08203,318.894531 L1583.55078,318.894531 L1559.3125,376.496094 L1531.08203,376.496094 L1531.08203,408.71875 L1582.41016,408.71875 L1558.17188,466.320312 L1531.08203,466.320312 L1531.08203,531.621094 L1444.39453,559.28125 L1444.39453,466.320312 L1385.65234,466.320312 L1385.65234,525.632812 L1299.53516,553.578125 L1299.53516,227.074219 L1353.71484,227.074219 L1332.04297,192 L1429.56641,191.714844 L1453.23438,227.074219 L1526.80469,227.074219 L1565.01562,178.597656 L1299.53516,178.597656 L1299.53516,120.425781 L1675.37109,120.425781 L1675.37109,166.335937 Z M1385.65234,408.71875 L1444.39453,408.71875 L1444.39453,376.496094 L1385.65234,376.496094 L1385.65234,408.71875 Z M1385.65234,318.894531 L1444.39453,318.894531 L1444.39453,285.53125 L1385.65234,285.53125 L1385.65234,318.894531 Z M1273.58594,541.886719 L1351.14844,583.804687 L1681.64453,583.804687 L1654.83984,641.691406 L1306.66406,641.691406 L1265.60156,615.742187 L1184.04688,648.820312 L1184.04688,323.457031 L1167.22266,323.457031 L1167.22266,251.3125 L1273.58594,251.3125 L1273.58594,541.886719 Z" id="校际通-copy-2" fill="#489AD8"></path>
                <polygon id="Star-Copy-4" fill="#E94556" transform="translate(1196.934129, 114.444419) rotate(-30.000000) translate(-1196.934129, -114.444419) " points="1196.93413 160.222186 1151.15636 193.733838 1157.28942 137.333302 1105.37859 114.444419 1157.28942 91.555535 1151.15636 35.1549996 1196.93413 68.6666512 1242.7119 35.1549996 1236.57884 91.555535 1288.48966 114.444419 1236.57884 137.333302 1242.7119 193.733838"></polygon>
            </g>
        </g>
    </g>
</svg>