<?xml version="1.0" encoding="UTF-8" standalone="no"?>
<svg width="1601px" height="238px" viewBox="0 0 1601 238" version="1.1" xmlns="http://www.w3.org/2000/svg" xmlns:xlink="http://www.w3.org/1999/xlink">
    <!-- Generator: Sketch 39 (31667) - http://www.bohemiancoding.com/sketch -->
    <title>XiaoJiTong Copy</title>
    <desc>Created with Sketch.</desc>
    <defs></defs>
    <g id="Page-1" stroke="none" stroke-width="1" fill="none" fill-rule="evenodd">
        <g id="Artboard-11" transform="translate(-1225.000000, -2743.000000)" fill="#489AD8">
            <path d="M1225.15186,2927.61182 L1296.83643,2835.87109 L1227.99854,2748.78857 L1286.74365,2748.78857 L1331.38477,2803.91064 L1374.60254,2748.78857 L1433.99463,2748.78857 L1367.22705,2835.87109 L1435.41797,2927.61182 L1373.30859,2927.61182 L1330.86719,2869.90186 L1285.32031,2927.61182 L1225.15186,2927.61182 Z M1465.95508,2803.52246 L1512.40771,2803.52246 L1512.14893,2914.67236 L1465.82568,2932.27002 L1465.95508,2803.52246 Z M1488.21094,2743.22461 L1501.40918,2746.71826 L1510.98438,2756.29346 L1514.60742,2769.4917 L1510.98438,2782.56055 C1508.569,2786.61493 1505.33417,2789.84976 1501.27979,2792.26514 C1497.2254,2794.68051 1492.86916,2795.84505 1488.21094,2795.75879 C1483.55271,2795.75879 1479.17491,2794.57268 1475.07739,2792.20044 C1470.97988,2789.82819 1467.80974,2786.61493 1465.56689,2782.56055 L1462.07324,2769.4917 L1465.56689,2756.29346 L1475.14209,2746.71826 L1488.21094,2743.22461 Z M1590.69141,2838.0708 L1546.56787,2838.0708 L1546.82666,2826.68408 C1546.82666,2823.06102 1547.3011,2819.93401 1548.25,2817.30298 C1549.1989,2814.67194 1550.92414,2812.10564 1553.42578,2809.604 C1555.92742,2807.10236 1558.98973,2805.03207 1562.61279,2803.39307 C1566.23586,2801.75406 1570.16079,2800.71891 1574.3877,2800.2876 C1578.6146,2799.85628 1583.27276,2799.59749 1588.3623,2799.51123 L1638.95557,2799.25244 C1643.95885,2799.25244 1649.00518,2800.00724 1654.09473,2801.51685 C1659.18427,2803.02646 1663.56207,2805.87311 1667.22827,2810.05688 C1670.89447,2814.24066 1673.5039,2819.54578 1675.05664,2825.97241 C1676.60938,2832.39904 1677.38574,2840.31359 1677.38574,2849.71631 L1677.25635,2919.07178 L1632.22705,2929.94092 L1632.22705,2919.58936 C1629.46662,2921.40089 1626.83562,2922.95361 1624.33398,2924.24756 C1621.83234,2925.54151 1618.61908,2926.49039 1614.69409,2927.09424 C1610.7691,2927.69808 1605.18363,2928 1597.9375,2928 L1580.21045,2928 C1574.51706,2928 1569.21194,2927.52556 1564.29492,2926.57666 C1559.37791,2925.62776 1555.04323,2923.23399 1551.29077,2919.39526 C1547.53831,2915.55654 1544.99358,2911.76101 1543.65649,2908.00854 C1542.31941,2904.25608 1541.41366,2899.16662 1540.93921,2892.73999 C1540.46476,2886.31336 1540.65885,2880.29658 1541.52148,2874.68945 C1542.29786,2869.8587 1543.85057,2865.32994 1546.17969,2861.10303 C1548.5088,2856.87612 1551.87302,2853.59816 1556.27246,2851.26904 C1560.6719,2848.93993 1566.62399,2847.77539 1574.12891,2847.77539 L1606.21875,2847.77539 C1607.34017,2847.77539 1610.89849,2847.99105 1616.8938,2848.42236 C1622.88911,2848.85368 1626.44742,2849.37125 1627.56885,2849.9751 L1632.22705,2852.43359 C1632.22705,2849.15558 1632.20549,2846.37363 1632.16235,2844.08765 C1632.11922,2841.80167 1631.73104,2839.53728 1630.9978,2837.29443 C1630.26456,2835.05158 1628.81967,2833.30478 1626.66309,2832.05396 C1624.5065,2830.80314 1622.19899,2829.87582 1619.74048,2829.27197 C1617.28197,2828.66813 1614.80193,2828.36621 1612.30029,2828.36621 L1601.68994,2828.36621 C1599.44709,2828.36621 1597.3768,2828.73283 1595.479,2829.46606 C1593.58121,2830.1993 1592.63232,2830.86784 1592.63232,2831.47168 L1590.69141,2838.0708 Z M1604.14844,2897.98047 L1611.65332,2897.98047 C1617.69176,2897.98047 1622.048,2897.67855 1624.72217,2897.07471 C1627.39633,2896.47086 1629.50976,2895.02597 1631.0625,2892.73999 C1632.61524,2890.45401 1633.13282,2887.11135 1632.61523,2882.71191 C1632.27018,2880.12401 1631.55852,2878.20468 1630.48022,2876.95386 C1629.40193,2875.70304 1627.74138,2874.79728 1625.49854,2874.23657 C1623.25569,2873.67586 1619.46015,2873.39551 1614.11182,2873.39551 L1603.50146,2873.39551 C1600.99982,2873.39551 1598.39039,2873.80525 1595.6731,2874.62476 C1592.9558,2875.44426 1590.90707,2876.52254 1589.52686,2877.85962 C1588.14664,2879.1967 1587.37028,2881.02977 1587.19775,2883.35889 C1587.02523,2885.688 1587.15462,2887.45637 1587.58594,2888.66406 C1588.10352,2890.73439 1589.00927,2892.37337 1590.30322,2893.58105 C1591.59717,2894.78874 1593.43025,2895.82389 1595.80249,2896.68652 C1598.17474,2897.54916 1600.95669,2897.98047 1604.14844,2897.98047 L1604.14844,2897.98047 Z M1847.92773,2841.56445 L1847.92773,2878.57129 C1847.92773,2883.48831 1847.58269,2888.29742 1846.89258,2892.99878 C1846.20247,2897.70014 1845.12419,2902.31516 1843.65771,2906.84399 C1842.19124,2911.37283 1840.22877,2914.9527 1837.77026,2917.58374 C1835.31176,2920.21478 1832.18475,2922.2635 1828.38916,2923.72998 C1824.59357,2925.19646 1820.34516,2926.38256 1815.6438,2927.28833 C1810.94244,2928.1941 1805.83141,2928.64697 1800.31055,2928.64697 L1751.91699,2928.64697 C1747.1725,2928.64697 1742.73,2928.23723 1738.58936,2927.41772 C1734.44871,2926.59822 1730.39439,2925.36899 1726.42627,2923.72998 C1722.45815,2922.09097 1719.39584,2920.08538 1717.23926,2917.71313 C1715.08267,2915.34089 1713.1849,2912.40798 1711.5459,2908.91431 C1709.90689,2905.42064 1708.54826,2901.04283 1707.46997,2895.78076 C1706.39168,2890.51869 1705.85254,2884.91165 1705.85254,2878.95947 L1705.85254,2841.56445 C1705.85254,2836.30238 1706.34855,2831.36387 1707.34058,2826.74878 C1708.33261,2822.13368 1709.66967,2818.42441 1711.35181,2815.62085 C1713.03394,2812.81729 1715.14737,2810.29412 1717.69214,2808.05127 C1720.23691,2805.80842 1723.40704,2803.95378 1727.20264,2802.4873 C1730.99823,2801.02083 1735.22507,2799.87785 1739.8833,2799.05835 C1744.54153,2798.23885 1748.8115,2797.8291 1752.69336,2797.8291 L1800.56934,2797.8291 C1805.74514,2797.8291 1810.74835,2798.34667 1815.5791,2799.38184 C1820.40985,2800.417 1824.65827,2801.7325 1828.32446,2803.32837 C1831.99066,2804.92424 1835.00984,2806.97297 1837.38208,2809.47461 C1839.75433,2811.97625 1841.60896,2814.60725 1842.94604,2817.36768 C1844.28313,2820.12811 1845.44767,2823.75112 1846.4397,2828.23682 C1847.43173,2832.72252 1847.92773,2837.16502 1847.92773,2841.56445 L1847.92773,2841.56445 Z M1780.64258,2833.54199 L1773.78467,2833.54199 C1770.24787,2833.54199 1767.22869,2833.86548 1764.72705,2834.51245 C1762.22541,2835.15943 1759.93946,2836.25927 1757.86914,2837.81201 C1755.79882,2839.36475 1754.13827,2841.54287 1752.88745,2844.34644 C1751.63663,2847.15 1751.01123,2850.23387 1751.01123,2853.59814 L1751.01123,2873.13672 C1751.01123,2876.41473 1751.50724,2879.5633 1752.49927,2882.58252 C1753.4913,2885.60174 1754.89306,2887.90925 1756.70459,2889.50513 C1758.51612,2891.101 1760.86677,2892.28711 1763.75659,2893.06348 C1766.64642,2893.83985 1770.03221,2894.22803 1773.91406,2894.22803 L1780.38379,2894.22803 C1784.17938,2894.22803 1787.39265,2893.5595 1790.02368,2892.22241 C1792.65472,2890.88533 1794.63875,2889.39731 1795.97583,2887.7583 C1797.31291,2886.1193 1798.34806,2883.98431 1799.0813,2881.35327 C1799.81454,2878.72224 1800.18115,2876.06967 1800.18115,2873.39551 L1800.18115,2853.59814 C1800.18115,2849.88882 1799.51262,2846.67555 1798.17554,2843.95825 C1796.83845,2841.24095 1795.3073,2839.1491 1793.58203,2837.68262 C1791.85676,2836.21614 1790.00213,2835.15943 1788.01807,2834.51245 C1786.03401,2833.86548 1783.57554,2833.54199 1780.64258,2833.54199 L1780.64258,2833.54199 Z M1969.81738,2750.4707 L2020.15186,2750.21191 L2020.15186,2865.63184 C2020.15186,2882.10816 2019.3108,2893.17128 2017.62866,2898.82153 C2015.94652,2904.47179 2013.48805,2909.21621 2010.25317,2913.05493 C2007.01829,2916.89366 2002.81301,2920.38727 1997.63721,2923.53589 C1992.4614,2926.6845 1986.72497,2928.25879 1980.42773,2928.25879 L1920.64746,2928.25879 C1915.47165,2928.25879 1910.23123,2927.46086 1904.92603,2925.86499 C1899.62082,2924.26912 1894.79014,2921.55186 1890.43384,2917.71313 C1886.07753,2913.87441 1882.73487,2908.97903 1880.40576,2903.02686 C1878.07665,2897.07468 1876.91211,2888.87977 1876.91211,2878.44189 L1876.91211,2854.89209 L1925.82324,2854.89209 L1925.82324,2874.04248 C1925.82324,2876.45786 1926.23299,2878.67911 1927.05249,2880.7063 C1927.87199,2882.73349 1929.44628,2884.50186 1931.77539,2886.01147 C1934.1045,2887.52109 1938.547,2888.27588 1945.10303,2888.27588 L1953.51367,2888.27588 C1957.99937,2888.27588 1961.38516,2887.52109 1963.67114,2886.01147 C1965.95712,2884.50186 1967.55297,2882.23748 1968.45874,2879.21826 C1969.36451,2876.19904 1969.81738,2871.92906 1969.81738,2866.4082 L1969.81738,2750.4707 Z M2056.12354,2803.52246 L2102.57617,2803.52246 L2102.31738,2914.67236 L2055.99414,2932.27002 L2056.12354,2803.52246 Z M2078.37939,2743.22461 L2091.57764,2746.71826 L2101.15283,2756.29346 L2104.77588,2769.4917 L2101.15283,2782.56055 C2098.73746,2786.61493 2095.50262,2789.84976 2091.44824,2792.26514 C2087.39386,2794.68051 2083.03762,2795.84505 2078.37939,2795.75879 C2073.72117,2795.75879 2069.34336,2794.57268 2065.24585,2792.20044 C2061.14834,2789.82819 2057.9782,2786.61493 2055.73535,2782.56055 L2052.2417,2769.4917 L2055.73535,2756.29346 L2065.31055,2746.71826 L2078.37939,2743.22461 Z M2308.96045,2749.69434 L2294.20947,2791.22998 L2244.26318,2791.22998 L2244.26318,2917.64844 L2195.99902,2931.36426 L2195.99902,2791.22998 L2133.37207,2791.22998 L2133.37207,2749.69434 L2308.96045,2749.69434 Z M2479.76123,2841.56445 L2479.76123,2878.57129 C2479.76123,2883.48831 2479.41618,2888.29742 2478.72607,2892.99878 C2478.03597,2897.70014 2476.95769,2902.31516 2475.49121,2906.84399 C2474.02473,2911.37283 2472.06227,2914.9527 2469.60376,2917.58374 C2467.14525,2920.21478 2464.01825,2922.2635 2460.22266,2923.72998 C2456.42706,2925.19646 2452.17865,2926.38256 2447.47729,2927.28833 C2442.77594,2928.1941 2437.6649,2928.64697 2432.14404,2928.64697 L2383.75049,2928.64697 C2379.006,2928.64697 2374.5635,2928.23723 2370.42285,2927.41772 C2366.28221,2926.59822 2362.22788,2925.36899 2358.25977,2923.72998 C2354.29165,2922.09097 2351.22934,2920.08538 2349.07275,2917.71313 C2346.91617,2915.34089 2345.0184,2912.40798 2343.37939,2908.91431 C2341.74039,2905.42064 2340.38176,2901.04283 2339.30347,2895.78076 C2338.22517,2890.51869 2337.68604,2884.91165 2337.68604,2878.95947 L2337.68604,2841.56445 C2337.68604,2836.30238 2338.18204,2831.36387 2339.17407,2826.74878 C2340.1661,2822.13368 2341.50317,2818.42441 2343.1853,2815.62085 C2344.86744,2812.81729 2346.98086,2810.29412 2349.52563,2808.05127 C2352.07041,2805.80842 2355.24054,2803.95378 2359.03613,2802.4873 C2362.83172,2801.02083 2367.05857,2799.87785 2371.7168,2799.05835 C2376.37502,2798.23885 2380.645,2797.8291 2384.52686,2797.8291 L2432.40283,2797.8291 C2437.57864,2797.8291 2442.58184,2798.34667 2447.4126,2799.38184 C2452.24335,2800.417 2456.49176,2801.7325 2460.15796,2803.32837 C2463.82416,2804.92424 2466.84333,2806.97297 2469.21558,2809.47461 C2471.58782,2811.97625 2473.44246,2814.60725 2474.77954,2817.36768 C2476.11662,2820.12811 2477.28116,2823.75112 2478.27319,2828.23682 C2479.26522,2832.72252 2479.76123,2837.16502 2479.76123,2841.56445 L2479.76123,2841.56445 Z M2412.47607,2833.54199 L2405.61816,2833.54199 C2402.08136,2833.54199 2399.06219,2833.86548 2396.56055,2834.51245 C2394.05891,2835.15943 2391.77296,2836.25927 2389.70264,2837.81201 C2387.63231,2839.36475 2385.97177,2841.54287 2384.72095,2844.34644 C2383.47013,2847.15 2382.84473,2850.23387 2382.84473,2853.59814 L2382.84473,2873.13672 C2382.84473,2876.41473 2383.34073,2879.5633 2384.33276,2882.58252 C2385.32479,2885.60174 2386.72655,2887.90925 2388.53809,2889.50513 C2390.34962,2891.101 2392.70026,2892.28711 2395.59009,2893.06348 C2398.47991,2893.83985 2401.8657,2894.22803 2405.74756,2894.22803 L2412.21729,2894.22803 C2416.01288,2894.22803 2419.22614,2893.5595 2421.85718,2892.22241 C2424.48821,2890.88533 2426.47224,2889.39731 2427.80933,2887.7583 C2429.14641,2886.1193 2430.18156,2883.98431 2430.91479,2881.35327 C2431.64803,2878.72224 2432.01465,2876.06967 2432.01465,2873.39551 L2432.01465,2853.59814 C2432.01465,2849.88882 2431.34612,2846.67555 2430.00903,2843.95825 C2428.67195,2841.24095 2427.1408,2839.1491 2425.41553,2837.68262 C2423.69026,2836.21614 2421.83562,2835.15943 2419.85156,2834.51245 C2417.8675,2833.86548 2415.40903,2833.54199 2412.47607,2833.54199 L2412.47607,2833.54199 Z M2648.10352,2918.03662 L2601.65088,2929.81152 L2601.90967,2865.89062 C2601.90967,2858.6445 2601.30583,2852.84336 2600.09814,2848.48706 C2598.89046,2844.13076 2596.64764,2840.7881 2593.36963,2838.45898 C2590.09162,2836.12987 2585.39033,2835.00846 2579.26562,2835.09473 C2573.22718,2835.26725 2568.54746,2836.45336 2565.22632,2838.65308 C2561.90518,2840.85279 2559.38201,2843.72101 2557.65674,2847.25781 C2555.93147,2850.79461 2555.11198,2857.30741 2555.19824,2866.79639 L2555.45703,2917.00146 L2510.03955,2929.94092 L2510.16895,2799.38184 L2555.45703,2799.51123 L2555.45703,2812.19189 C2557.78614,2809.51773 2559.81331,2807.49057 2561.53857,2806.11035 C2563.26384,2804.73014 2565.74388,2803.30681 2568.97876,2801.84033 C2572.21364,2800.37385 2575.94448,2799.38184 2580.17139,2798.86426 C2584.3983,2798.34668 2590.7817,2798.21728 2599.32178,2798.47607 C2608.29318,2798.90739 2615.28041,2799.74845 2620.28369,2800.99927 C2625.28697,2802.25009 2629.7726,2804.42821 2633.74072,2807.53369 C2637.70884,2810.63918 2640.68489,2814.11123 2642.66895,2817.94995 C2644.653,2821.78867 2646.01163,2826.10178 2646.74487,2830.8894 C2647.47811,2835.67703 2647.88786,2846.86954 2647.97412,2864.46729 L2648.10352,2918.03662 Z M2779.05078,2799.51123 L2825.50342,2799.77002 L2825.50342,2923.3418 C2825.50342,2930.58793 2824.81332,2937.92021 2823.43311,2945.33887 C2822.05289,2952.75752 2819.9179,2958.2783 2817.02808,2961.90137 C2814.13825,2965.52443 2810.98968,2968.50048 2807.58228,2970.82959 C2804.17487,2973.1587 2798.89131,2975.40152 2791.73145,2977.55811 C2784.57158,2979.71469 2777.2393,2980.79297 2769.73438,2980.79297 L2737.77393,2980.79297 C2731.56296,2980.79297 2725.78339,2980.38322 2720.43506,2979.56372 C2715.08672,2978.74422 2710.19135,2977.2562 2705.74878,2975.09961 C2701.30621,2972.94302 2697.57537,2970.1395 2694.55615,2966.68896 C2691.53693,2963.23843 2689.14316,2959.68011 2687.37476,2956.01392 C2685.60636,2952.34772 2684.67904,2949.30698 2684.59277,2946.8916 L2683.29883,2935.1167 L2728.32812,2935.1167 C2728.50065,2937.61834 2728.9104,2939.75333 2729.55737,2941.52173 C2730.20435,2943.29013 2731.77863,2945.03694 2734.28027,2946.76221 C2736.78191,2948.48748 2739.6717,2949.3501 2742.94971,2949.3501 L2753.30127,2949.3501 C2760.28861,2949.3501 2765.6153,2947.66799 2769.28149,2944.30371 C2772.94769,2940.93944 2775.49242,2937.42425 2776.91577,2933.75806 C2778.33912,2930.09186 2779.05078,2925.97284 2779.05078,2921.40088 L2779.05078,2910.91992 C2776.54914,2913.93914 2774.0691,2916.35448 2771.6106,2918.16602 C2769.15209,2919.97755 2765.27029,2921.22835 2759.96509,2921.91846 C2754.65989,2922.60856 2749.93703,2923.03988 2745.79639,2923.2124 C2741.65574,2923.38493 2738.16212,2923.42806 2735.31543,2923.3418 C2729.70831,2923.3418 2723.88561,2922.93205 2717.84717,2922.11255 C2711.80873,2921.29305 2706.37421,2919.71876 2701.54346,2917.38965 C2696.7127,2915.06054 2692.67995,2912.04136 2689.44507,2908.33203 C2686.21019,2904.6227 2683.64389,2899.46854 2681.74609,2892.86938 C2679.8483,2886.27023 2678.79159,2878.83012 2678.57593,2870.54883 C2678.36027,2862.26754 2678.59749,2853.85698 2679.2876,2845.31689 C2680.06397,2835.91418 2681.57356,2828.43094 2683.81641,2822.86694 C2686.05926,2817.30295 2688.94904,2812.83888 2692.48584,2809.47461 C2696.02264,2806.11033 2699.94757,2803.34995 2704.26074,2801.19336 C2708.57391,2799.03677 2715.00045,2797.9585 2723.54053,2797.9585 L2742.04395,2797.9585 C2748.68623,2797.9585 2754.55206,2798.32511 2759.6416,2799.05835 C2764.73115,2799.79159 2768.48355,2800.80517 2770.89893,2802.09912 L2779.05078,2806.23975 L2779.05078,2799.51123 Z M2744.50244,2889.82861 L2758.47705,2890.0874 C2762.35891,2890.17367 2765.91722,2889.65609 2769.1521,2888.53467 C2772.38698,2887.41324 2774.84545,2885.36452 2776.52759,2882.38843 C2778.20973,2879.41234 2779.05078,2875.72463 2779.05078,2871.3252 L2779.05078,2851.13965 C2779.05078,2847.17153 2778.44695,2843.91513 2777.23926,2841.37036 C2776.03157,2838.82559 2774.11224,2836.71217 2771.4812,2835.03003 C2768.85017,2833.34789 2764.3861,2832.50684 2758.08887,2832.50684 L2749.03125,2832.50684 C2741.44007,2832.50684 2735.98398,2833.26163 2732.66284,2834.77124 C2729.3417,2836.28085 2726.92636,2839.08437 2725.41675,2843.18188 C2723.90714,2847.2794 2723.13078,2854.05098 2723.08765,2863.49683 C2723.04451,2872.94267 2723.71305,2878.8732 2725.09326,2881.28857 C2726.47348,2883.79021 2728.5869,2885.81738 2731.43359,2887.37012 C2734.28029,2888.92286 2738.63653,2889.74235 2744.50244,2889.82861 L2744.50244,2889.82861 Z" id="XiaoJiTong-Copy"></path>
        </g>
    </g>
</svg>